<svg width="26" height="26" viewBox="0 0 26 26" fill="none" xmlns="http://www.w3.org/2000/svg">
<g clip-path="url(#clip0_501_16249)">
<g filter="url(#filter0_ddd_501_16249)">
<path d="M12.3434 8.87048C12.1946 9.42905 11.688 9.84502 11.0895 10.1344C9.3929 10.6997 8.05327 11.2448 6.94377 11.773C5.96202 12.2413 5.97252 13.7204 6.9569 14.1819C8.10752 14.721 9.55215 15.2383 11.1569 15.8525C11.5883 16.017 12.1981 16.4828 12.3495 17.0557C12.8392 18.875 13.442 20.6641 14.1546 22.4135C14.698 23.7525 16.0429 23.7509 16.5898 22.4135C17.2985 20.6762 17.8384 18.8006 18.4465 17.016C18.5205 16.7453 18.6624 16.4962 18.8599 16.2909C19.0574 16.0856 19.3043 15.9304 19.5788 15.839C20.9754 15.3564 22.3533 14.8248 23.7096 14.2452C24.8121 13.7769 24.8349 12.2573 23.7464 11.7595C22.3828 11.1325 20.9898 10.5668 19.5718 10.0644C19.2949 9.96904 19.0448 9.8128 18.8415 9.60805C18.6381 9.4033 18.487 9.15569 18.4001 8.88483C17.7404 6.93577 17.3221 5.28202 16.6204 3.56583C16.0735 2.22764 14.6394 2.26898 14.0916 3.60633C13.3934 5.31745 12.906 7.0193 12.3434 8.87048Z" fill="url(#paint0_linear_501_16249)"/>
</g>
<path d="M12.3434 8.87048C12.1946 9.42905 11.688 9.84502 11.0895 10.1344C9.3929 10.6997 8.05327 11.2448 6.94377 11.773C5.96202 12.2413 5.97252 13.7204 6.9569 14.1819C8.10752 14.721 9.55215 15.2383 11.1569 15.8525C11.5883 16.017 12.1981 16.4828 12.3495 17.0557C12.8392 18.875 13.442 20.6641 14.1546 22.4135C14.698 23.7525 16.0429 23.7509 16.5898 22.4135C17.2985 20.6762 17.8384 18.8006 18.4465 17.016C18.5205 16.7453 18.6624 16.4962 18.8599 16.2909C19.0574 16.0856 19.3043 15.9304 19.5788 15.839C20.9754 15.3564 22.3533 14.8248 23.7096 14.2452C24.8121 13.7769 24.8349 12.2573 23.7464 11.7595C22.3828 11.1325 20.9898 10.5668 19.5718 10.0644C19.2949 9.96904 19.0448 9.8128 18.8415 9.60805C18.6381 9.4033 18.487 9.15569 18.4001 8.88483C17.7404 6.93577 17.3221 5.28202 16.6204 3.56583C16.0735 2.22764 14.6394 2.26898 14.0916 3.60633C13.3934 5.31745 12.906 7.0193 12.3434 8.87048Z" fill="url(#paint1_linear_501_16249)"/>
<g filter="url(#filter1_dd_501_16249)">
<path d="M5.29698 4.40711C5.24886 4.58683 5.08611 4.72099 4.89361 4.8138C4.34761 4.99605 3.91623 5.17155 3.55923 5.34199C3.24336 5.49218 3.24598 5.96805 3.56361 6.11655C3.93373 6.29036 4.39836 6.45658 4.91461 6.65402C5.05461 6.70718 5.24973 6.85736 5.29961 7.04215C5.44923 7.60999 5.65398 8.21074 5.87973 8.76593C6.05473 9.19708 6.48786 9.19624 6.66373 8.76593C6.89123 8.20736 7.06623 7.60324 7.26136 7.02865C7.28519 6.94144 7.33095 6.86124 7.3946 6.79516C7.45824 6.72908 7.5378 6.67915 7.62624 6.6498C8.07589 6.49476 8.51952 6.32393 8.95623 6.13765C9.03595 6.10331 9.10381 6.0477 9.15181 5.97738C9.19981 5.90706 9.22595 5.82497 9.22715 5.74079C9.22834 5.65661 9.20454 5.57386 9.15856 5.5023C9.11257 5.43074 9.04632 5.37336 8.96761 5.33693C8.59311 5.16649 8.12761 4.96821 7.62361 4.79186C7.53448 4.76119 7.45399 4.7109 7.38852 4.64499C7.32306 4.57908 7.27443 4.49937 7.24649 4.41218C7.03386 3.78443 6.89911 3.25286 6.67336 2.69936C6.49836 2.26905 6.03549 2.28255 5.85961 2.71286C5.63474 3.26383 5.47811 3.81143 5.29698 4.40711Z" fill="url(#paint2_linear_501_16249)"/>
</g>
<path d="M5.29698 4.40711C5.24886 4.58683 5.08611 4.72099 4.89361 4.8138C4.34761 4.99605 3.91623 5.17155 3.55923 5.34199C3.24336 5.49218 3.24598 5.96805 3.56361 6.11655C3.93373 6.29036 4.39836 6.45658 4.91461 6.65402C5.05461 6.70718 5.24973 6.85736 5.29961 7.04215C5.44923 7.60999 5.65398 8.21074 5.87973 8.76593C6.05473 9.19708 6.48786 9.19624 6.66373 8.76593C6.89123 8.20736 7.06623 7.60324 7.26136 7.02865C7.28519 6.94144 7.33095 6.86124 7.3946 6.79516C7.45824 6.72908 7.5378 6.67915 7.62624 6.6498C8.07589 6.49476 8.51952 6.32393 8.95623 6.13765C9.03595 6.10331 9.10381 6.0477 9.15181 5.97738C9.19981 5.90706 9.22595 5.82497 9.22715 5.74079C9.22834 5.65661 9.20454 5.57386 9.15856 5.5023C9.11257 5.43074 9.04632 5.37336 8.96761 5.33693C8.59311 5.16649 8.12761 4.96821 7.62361 4.79186C7.53448 4.76119 7.45399 4.7109 7.38852 4.64499C7.32306 4.57908 7.27443 4.49937 7.24649 4.41218C7.03386 3.78443 6.89911 3.25286 6.67336 2.69936C6.49836 2.26905 6.03549 2.28255 5.85961 2.71286C5.63474 3.26383 5.47811 3.81143 5.29698 4.40711Z" fill="url(#paint3_linear_501_16249)"/>
<g filter="url(#filter2_d_501_16249)">
<path d="M3.07274 16.4306C3.00624 16.6812 2.77874 16.8677 2.51011 16.9976C1.74886 17.2508 1.14686 17.4955 0.648988 17.7334C0.208863 17.9435 0.213238 18.6067 0.655113 18.8134C1.17136 19.0564 1.81974 19.2884 2.53986 19.5643C2.73411 19.6377 3.00711 19.847 3.07536 20.1043C3.28536 20.8958 3.57061 21.7345 3.88561 22.509C4.12974 23.1098 4.73349 23.1089 4.97849 22.509C5.29699 21.7294 5.53849 20.8873 5.81149 20.0858C5.84466 19.9642 5.90841 19.8524 5.99708 19.7603C6.08576 19.6682 6.19662 19.5985 6.31986 19.5576C6.94703 19.3412 7.56577 19.1029 8.17486 18.8429C8.28573 18.7948 8.38005 18.7172 8.44676 18.6192C8.51346 18.5212 8.54977 18.4068 8.55142 18.2896C8.55308 18.1724 8.52001 18.0572 8.45609 17.9574C8.39218 17.8577 8.30008 17.7776 8.19061 17.7266C7.57869 17.4454 6.95356 17.1917 6.31724 16.9664C6.19288 16.9236 6.08059 16.8534 5.9893 16.7615C5.89801 16.6695 5.83024 16.5582 5.79136 16.4365C5.49474 15.5616 5.30749 14.8199 4.99249 14.0487C4.74749 13.4497 4.10261 13.4674 3.85761 14.0681C3.54436 14.836 3.32474 15.5995 3.07274 16.4306Z" fill="url(#paint4_radial_501_16249)"/>
</g>
</g>
<defs>
<filter id="filter0_ddd_501_16249" x="5.41301" y="1.83252" width="20.3868" height="22.8345" filterUnits="userSpaceOnUse" color-interpolation-filters="sRGB">
<feFlood flood-opacity="0" result="BackgroundImageFix"/>
<feColorMatrix in="SourceAlpha" type="matrix" values="0 0 0 0 0 0 0 0 0 0 0 0 0 0 0 0 0 0 127 0" result="hardAlpha"/>
<feOffset dx="0.25" dy="-0.25"/>
<feGaussianBlur stdDeviation="0.25"/>
<feComposite in2="hardAlpha" operator="out"/>
<feColorMatrix type="matrix" values="0 0 0 0 0.937255 0 0 0 0 0.482353 0 0 0 0 0.329412 0 0 0 1 0"/>
<feBlend mode="normal" in2="BackgroundImageFix" result="effect1_dropShadow_501_16249"/>
<feColorMatrix in="SourceAlpha" type="matrix" values="0 0 0 0 0 0 0 0 0 0 0 0 0 0 0 0 0 0 127 0" result="hardAlpha"/>
<feOffset dx="0.25" dy="0.25"/>
<feGaussianBlur stdDeviation="0.5"/>
<feComposite in2="hardAlpha" operator="out"/>
<feColorMatrix type="matrix" values="0 0 0 0 0.737255 0 0 0 0 0.615686 0 0 0 0 0.415686 0 0 0 1 0"/>
<feBlend mode="normal" in2="effect1_dropShadow_501_16249" result="effect2_dropShadow_501_16249"/>
<feColorMatrix in="SourceAlpha" type="matrix" values="0 0 0 0 0 0 0 0 0 0 0 0 0 0 0 0 0 0 127 0" result="hardAlpha"/>
<feOffset dx="-0.4" dy="0.25"/>
<feGaussianBlur stdDeviation="0.2"/>
<feComposite in2="hardAlpha" operator="out"/>
<feColorMatrix type="matrix" values="0 0 0 0 1 0 0 0 0 0.901961 0 0 0 0 0.458824 0 0 0 1 0"/>
<feBlend mode="normal" in2="effect2_dropShadow_501_16249" result="effect3_dropShadow_501_16249"/>
<feBlend mode="normal" in="SourceGraphic" in2="effect3_dropShadow_501_16249" result="shape"/>
</filter>
<filter id="filter1_dd_501_16249" x="3.02385" y="2.2833" width="6.50332" height="7.10557" filterUnits="userSpaceOnUse" color-interpolation-filters="sRGB">
<feFlood flood-opacity="0" result="BackgroundImageFix"/>
<feColorMatrix in="SourceAlpha" type="matrix" values="0 0 0 0 0 0 0 0 0 0 0 0 0 0 0 0 0 0 127 0" result="hardAlpha"/>
<feOffset dx="0.1" dy="0.1"/>
<feGaussianBlur stdDeviation="0.1"/>
<feComposite in2="hardAlpha" operator="out"/>
<feColorMatrix type="matrix" values="0 0 0 0 0.803922 0 0 0 0 0.6 0 0 0 0 0.262745 0 0 0 1 0"/>
<feBlend mode="normal" in2="BackgroundImageFix" result="effect1_dropShadow_501_16249"/>
<feColorMatrix in="SourceAlpha" type="matrix" values="0 0 0 0 0 0 0 0 0 0 0 0 0 0 0 0 0 0 127 0" result="hardAlpha"/>
<feOffset dx="-0.1" dy="0.1"/>
<feGaussianBlur stdDeviation="0.1"/>
<feComposite in2="hardAlpha" operator="out"/>
<feColorMatrix type="matrix" values="0 0 0 0 1 0 0 0 0 0.882353 0 0 0 0 0.423529 0 0 0 1 0"/>
<feBlend mode="normal" in2="effect1_dropShadow_501_16249" result="effect2_dropShadow_501_16249"/>
<feBlend mode="normal" in="SourceGraphic" in2="effect2_dropShadow_501_16249" result="shape"/>
</filter>
<filter id="filter2_d_501_16249" x="0.171289" y="13.1584" width="8.83022" height="9.95107" filterUnits="userSpaceOnUse" color-interpolation-filters="sRGB">
<feFlood flood-opacity="0" result="BackgroundImageFix"/>
<feColorMatrix in="SourceAlpha" type="matrix" values="0 0 0 0 0 0 0 0 0 0 0 0 0 0 0 0 0 0 127 0" result="hardAlpha"/>
<feOffset dx="0.15" dy="-0.15"/>
<feGaussianBlur stdDeviation="0.15"/>
<feComposite in2="hardAlpha" operator="out"/>
<feColorMatrix type="matrix" values="0 0 0 0 1 0 0 0 0 0.458824 0 0 0 0 0.462745 0 0 0 1 0"/>
<feBlend mode="normal" in2="BackgroundImageFix" result="effect1_dropShadow_501_16249"/>
<feBlend mode="normal" in="SourceGraphic" in2="effect1_dropShadow_501_16249" result="shape"/>
</filter>
<linearGradient id="paint0_linear_501_16249" x1="21.3629" y1="9.0097" x2="12.0402" y2="19.1865" gradientUnits="userSpaceOnUse">
<stop stop-color="#FFCF5A"/>
<stop offset="1" stop-color="#F7E47D"/>
</linearGradient>
<linearGradient id="paint1_linear_501_16249" x1="11.4098" y1="24.2132" x2="16.3865" y2="13.3271" gradientUnits="userSpaceOnUse">
<stop stop-color="#F7E06F"/>
<stop offset="1" stop-color="#FF886D" stop-opacity="0"/>
</linearGradient>
<linearGradient id="paint2_linear_501_16249" x1="8.20023" y1="4.45183" x2="5.19985" y2="7.72742" gradientUnits="userSpaceOnUse">
<stop stop-color="#FFDA72"/>
<stop offset="1" stop-color="#F7A967"/>
</linearGradient>
<linearGradient id="paint3_linear_501_16249" x1="6.27523" y1="9.60799" x2="6.27523" y2="6.12752" gradientUnits="userSpaceOnUse">
<stop stop-color="#FDA071"/>
<stop offset="1" stop-color="#FDA071" stop-opacity="0"/>
</linearGradient>
<radialGradient id="paint4_radial_501_16249" cx="0" cy="0" r="1" gradientUnits="userSpaceOnUse" gradientTransform="translate(7.26224 15.1659) rotate(128.229) scale(6.0522 5.9478)">
<stop offset="0.365" stop-color="#FFBC64"/>
<stop offset="1" stop-color="#F6DE6B"/>
</radialGradient>
<clipPath id="clip0_501_16249">
<rect width="26" height="26" fill="white"/>
</clipPath>
</defs>
</svg>
